<svg width="24" height="24" viewBox="0 0 24 24" fill="none" xmlns="http://www.w3.org/2000/svg">
<g id="Icons/Author" clip-path="url(#clip0_38_2592)">
<g id="Union" opacity="0.8">
<path fill-rule="evenodd" clip-rule="evenodd" d="M18.3529 15.5294H5.64706V4.23529H18.3529V15.5294ZM16.9412 7.05882H15.5294V5.64706H12.7059V7.05882H11.2941V5.64706H8.47059V7.05882H7.05882V9.88235H8.47059V11.2941H9.88235V12.7059H11.2941V14.1176H12.7059V12.7059H14.1176V11.2941H15.5294V9.88235H16.9412V7.05882Z" fill="black"/>
<path fill-rule="evenodd" clip-rule="evenodd" d="M2.82353 0V1.41176H1.41176V2.82353H0V21.1765H1.41176V22.5882H2.82353V24H22.5882V22.5882H24V1.41176H22.5882V0H2.82353ZM2.82353 21.1765H22.5882V22.5882H2.82353V21.1765ZM2.82353 19.7647V21.1765H1.41176V19.7647H2.82353ZM2.82353 19.7647V18.3529H22.5882V19.7647H2.82353ZM19.7647 15.5294V4.23529H18.3529V2.82353H5.64706V4.23529H4.23529V15.5294H5.64706V16.9412H18.3529V15.5294H19.7647Z" fill="black"/>
</g>
</g>
<defs>
<clipPath id="clip0_38_2592">
<rect width="24" height="24" fill="white"/>
</clipPath>
</defs>
</svg>
