<svg width="24" height="24" viewBox="0 0 24 24" fill="none" xmlns="http://www.w3.org/2000/svg">
<g id="Icons/Pass Revealed">
<g id="Union">
<path d="M17 5V7H15V9H17V13H15V15H19V17H17V19H7V17H5V15H9V13H7V9H9V11H11V9H9V7H7V5H17Z" fill="black" fill-opacity="0.8"/>
<path d="M5 9H3V11H1V13H3V15H5V9Z" fill="black" fill-opacity="0.8"/>
<path d="M5 9V7H7V9H5Z" fill="black" fill-opacity="0.8"/>
<path d="M19 9H21V11H23V13H21V15H19V9Z" fill="black" fill-opacity="0.8"/>
<path d="M19 9V7H17V9H19Z" fill="black" fill-opacity="0.8"/>
</g>
</g>
</svg>
